
<svg xmlns="http://www.w3.org/2000/svg"
 width="50" height="50" viewBox="0 0 50 50">

<g transform="translate(0.000000,64.000000) scale(0.100000,-0.100000)"
fill="#000000" stroke="none">
<path d="M350 511 c0 -67 4 -111 10 -111 6 0 10 41 10 104 0 59 -4 108 -10
111 -6 4 -10 -33 -10 -104z"/>
<path d="M450 506 c0 -64 4 -106 10 -106 6 0 10 40 10 99 0 56 -4 103 -10 106
-6 4 -10 -32 -10 -99z"/>
<path d="M210 570 c0 -6 -11 -15 -24 -19 -19 -8 -23 -17 -23 -51 0 -34 4 -43
23 -51 13 -4 24 -13 24 -19 0 -5 9 -10 20 -10 11 0 20 5 20 10 0 6 11 15 24
19 19 8 23 17 23 51 0 34 -4 43 -23 51 -13 4 -24 13 -24 19 0 5 -9 10 -20 10
-11 0 -20 -5 -20 -10z m45 -70 c0 -18 -6 -26 -23 -28 -13 -2 -25 3 -28 12 -10
26 4 48 28 44 17 -2 23 -10 23 -28z"/>
<path d="M75 328 c12 -58 37 -98 82 -136 24 -20 41 -41 39 -47 -2 -5 -16 -36
-30 -68 l-26 -57 145 0 c90 0 145 4 145 10 0 6 -6 10 -13 10 -35 0 -45 33 -49
152 -4 161 -5 162 -174 166 l-126 4 7 -34z m239 -24 c9 -8 16 -19 16 -24 0
-11 -29 -40 -40 -40 -11 0 -40 29 -40 40 0 5 7 16 16 24 8 9 19 16 24 16 5 0
16 -7 24 -16z"/>
<path d="M446 304 c-18 -18 -18 -19 -2 -22 10 -2 20 -1 23 1 2 3 3 13 1 23 -3
16 -4 16 -22 -2z"/>
</g>
</svg>
